<?xml version="1.0" standalone="no"?>
<!DOCTYPE svg PUBLIC "-//W3C//DTD SVG 20010904//EN"
 "http://www.w3.org/TR/2001/REC-SVG-20010904/DTD/svg10.dtd">
<svg version="1.0" xmlns="http://www.w3.org/2000/svg"
 width="512.000000pt" height="512.000000pt" viewBox="0 0 512.000000 512.000000"
 preserveAspectRatio="xMidYMid meet">
<metadata>
Created by potrace 1.16, written by Peter Selinger 2001-2019
</metadata>
<g transform="translate(0.000000,512.000000) scale(0.100000,-0.100000)"
fill="#000000" stroke="none">
<path d="M1605 4783 c-456 -26 -844 -184 -1089 -444 -153 -162 -245 -331 -301
-549 -62 -240 -60 -604 5 -861 37 -145 128 -341 234 -507 l46 -72 438 0 438 0
253 708 c140 389 262 726 272 749 33 79 124 95 172 30 19 -24 27 -105 98 -922
42 -493 78 -898 81 -900 3 -4 146 500 279 989 28 104 155 119 194 22 7 -17 45
-176 86 -353 40 -178 76 -323 79 -323 4 0 66 253 140 563 73 309 139 573 146
588 32 64 139 64 173 0 6 -10 55 -341 111 -737 55 -395 102 -726 103 -734 2
-8 25 52 51 134 31 98 56 157 71 172 l24 24 545 0 545 0 55 88 c102 167 179
336 216 480 64 249 67 634 6 868 -85 326 -300 607 -591 770 -338 190 -808 263
-1180 183 -181 -39 -434 -151 -581 -257 l-80 -58 -50 38 c-205 159 -533 285
-789 303 -44 3 -96 7 -115 8 -19 2 -57 2 -85 0z"/>
<path d="M1927 3285 c-5 -11 -94 -258 -199 -550 -134 -375 -197 -537 -214
-555 l-24 -25 -420 -3 c-231 -1 -420 -5 -420 -8 0 -8 110 -142 224 -274 146
-168 1065 -1080 1330 -1319 285 -258 524 -279 798 -71 139 105 1227 1175 1414
1390 99 114 213 253 228 278 6 9 -78 12 -407 12 l-413 0 -93 -302 c-109 -356
-121 -385 -156 -398 -60 -23 -117 -3 -136 48 -5 14 -52 330 -104 701 -52 372
-96 680 -98 684 -1 5 -58 -225 -126 -510 -68 -285 -128 -529 -134 -543 -7 -14
-29 -33 -49 -43 -33 -16 -40 -16 -71 -4 -19 8 -41 24 -49 36 -8 11 -52 185
-99 385 -46 201 -84 364 -86 363 -1 -2 -74 -263 -162 -582 -88 -319 -167 -594
-175 -612 -22 -47 -69 -68 -117 -54 -20 6 -44 23 -53 36 -14 21 -32 200 -96
948 -43 507 -80 938 -82 957 -2 29 -4 32 -11 15z"/>
</g>
</svg>
