<?xml version="1.0" standalone="no"?>
<!DOCTYPE svg PUBLIC "-//W3C//DTD SVG 20010904//EN"
 "http://www.w3.org/TR/2001/REC-SVG-20010904/DTD/svg10.dtd">
<svg version="1.0" xmlns="http://www.w3.org/2000/svg"
 width="864.000000pt" height="691.000000pt" viewBox="0 0 864.000000 691.000000"
 preserveAspectRatio="xMidYMid meet">
<metadata>
Created by potrace 1.16, written by Peter Selinger 2001-2019
</metadata>
<g transform="translate(0.000000,691.000000) scale(0.100000,-0.100000)"
fill="#000000" stroke="none">
<path d="M2017 6846 c-89 -32 -159 -101 -191 -189 -9 -23 -212 -647 -452
-1387 -239 -740 -504 -1556 -589 -1815 -84 -258 -156 -495 -159 -525 -14 -123
41 -275 131 -361 42 -40 3406 -2490 3487 -2540 21 -13 50 -19 88 -19 50 0 64
5 120 43 203 137 3412 2478 3456 2520 97 95 147 246 123 378 -16 91 -1198
3724 -1225 3768 -60 92 -151 141 -266 141 -122 0 -224 -59 -275 -160 -17 -35
-592 -1787 -737 -2247 l-29 -93 -1167 0 -1167 0 -259 798 c-143 438 -315 968
-384 1176 l-124 379 -56 57 c-39 39 -73 62 -106 73 -59 20 -166 21 -219 3z
m448 -1500 c173 -532 315 -972 315 -977 0 -5 -284 -9 -661 -9 -525 0 -660 3
-656 13 2 6 149 460 327 1007 177 547 325 999 328 1005 3 5 12 -9 19 -30 7
-22 155 -476 328 -1009z m4405 43 c179 -550 326 -1007 328 -1015 3 -12 -92
-14 -658 -14 -525 0 -661 3 -658 13 2 6 150 463 329 1014 178 552 326 1003
329 1003 3 0 151 -450 330 -1001z m-3563 -2634 c221 -682 432 -1329 467 -1439
44 -135 59 -193 47 -180 -21 22 -2212 2831 -2224 2851 -7 11 104 13 650 11
l657 -3 403 -1240z m2070 1233 c-2 -7 -238 -732 -523 -1610 -285 -878 -522
-1594 -526 -1590 -5 6 -367 1116 -996 3060 l-50 152 1050 0 c835 0 1049 -3
1045 -12z m1691 4 c-7 -18 -2231 -2862 -2235 -2859 -3 4 331 1039 803 2485
l125 382 655 0 c361 0 654 -4 652 -8z m-4734 -1540 c576 -739 1046 -1345 1044
-1346 -1 -2 -536 385 -1188 859 -817 593 -1189 870 -1199 889 -12 26 -4 56
129 464 152 467 159 487 164 481 2 -2 474 -608 1050 -1347z m5288 620 c58
-182 61 -195 47 -220 -12 -22 -900 -674 -2348 -1724 -25 -17 -41 -25 -36 -17
8 14 1994 2562 2064 2648 l36 44 87 -269 c48 -148 116 -356 150 -462z"/>
</g>
</svg>
