<?xml version="1.0" standalone="no"?>
<!DOCTYPE svg PUBLIC "-//W3C//DTD SVG 20010904//EN"
 "http://www.w3.org/TR/2001/REC-SVG-20010904/DTD/svg10.dtd">
<svg version="1.0" xmlns="http://www.w3.org/2000/svg"
 width="460.000000pt" height="707.000000pt" viewBox="0 0 460.000000 707.000000"
 preserveAspectRatio="xMidYMid meet">
<metadata>
Created by potrace 1.16, written by Peter Selinger 2001-2019
</metadata>
<g transform="translate(0.000000,707.000000) scale(0.100000,-0.100000)"
fill="#000000" stroke="none">
<path d="M3673 6551 c-128 -60 -173 -140 -271 -481 -125 -439 -277 -1180 -391
-1915 -60 -384 -104 -714 -181 -1350 -88 -724 -92 -757 -101 -748 -18 18 -210
613 -322 998 -148 504 -357 1348 -466 1878 l-41 198 45 215 c77 363 147 644
227 902 37 121 40 137 29 173 -19 61 -81 85 -141 54 -47 -24 -98 -150 -226
-559 -28 -88 -39 -114 -45 -99 -4 11 -15 91 -24 179 -9 87 -21 183 -27 213
-13 71 -45 101 -105 101 -56 0 -89 -30 -98 -91 -11 -75 31 -581 80 -946 l14
-113 -65 -292 c-222 -997 -399 -2050 -544 -3238 -76 -627 -103 -968 -81 -1046
13 -50 83 -132 128 -150 53 -23 132 -18 191 12 121 60 127 88 172 799 46 718
105 1351 195 2095 44 363 125 931 134 948 4 8 34 -116 65 -275 249 -1252 626
-2632 791 -2893 36 -56 94 -92 159 -98 68 -5 112 9 165 54 97 83 102 107 296
1259 296 1764 405 2287 695 3330 166 600 172 634 121 740 -16 33 -41 72 -57
87 -74 69 -236 99 -321 59z"/>
</g>
</svg>
