<?xml version="1.0" standalone="no"?>
<!DOCTYPE svg PUBLIC "-//W3C//DTD SVG 20010904//EN"
 "http://www.w3.org/TR/2001/REC-SVG-20010904/DTD/svg10.dtd">
<svg version="1.0" xmlns="http://www.w3.org/2000/svg"
 width="1280.000000pt" height="1204.000000pt" viewBox="0 0 1280.000000 1204.000000"
 preserveAspectRatio="xMidYMid meet">
<g transform="translate(0.000000,1204.000000) scale(0.100000,-0.100000)"
fill="#000000" stroke="none">
<path d="M562 11517 c-22 -23 -22 -26 -22 -420 l0 -397 23 -4 c12 -3 85 -10
162 -16 280 -23 597 -79 773 -136 116 -38 219 -92 272 -144 116 -113 187 -343
210 -688 8 -109 10 -1273 8 -3822 -3 -3395 -5 -3673 -21 -3776 -38 -245 -96
-406 -181 -501 -130 -144 -480 -241 -1071 -298 -86 -8 -161 -17 -166 -21 -5
-3 -9 -170 -9 -397 l0 -391 27 -28 27 -28 1902 0 1901 0 27 21 26 20 0 404 0
403 -57 6 c-32 3 -94 8 -138 11 -390 29 -739 102 -918 192 -189 94 -279 263
-334 619 -16 100 -18 378 -20 3417 -3 3052 -2 3308 13 3305 9 -2 1504 -1931
3323 -4288 l3307 -4285 619 -3 619 -2 23 22 23 21 3 4716 c2 4410 4 4723 20
4831 40 263 104 435 200 534 145 148 521 249 1067 287 85 6 161 13 168 15 9 3
12 92 12 402 l0 399 -23 21 -23 22 -1915 0 -1916 0 -21 -23 c-22 -23 -22 -26
-22 -420 l0 -397 23 -4 c12 -2 90 -9 172 -16 522 -39 883 -136 1037 -278 107
-99 178 -283 215 -555 17 -124 18 -291 18 -2872 0 -2354 -2 -2740 -14 -2740
-8 0 -1288 1643 -2845 3652 l-2831 3652 -1826 1 -1826 0 -21 -23z"/>
</g>
</svg>
